<?xml version="1.0" standalone="no"?>
<svg xmlns:xlink="http://www.w3.org/1999/xlink" id="wave" style="transform:rotate(0deg); transition: 0.3s" viewBox="0 0 1440 150" version="1.1" xmlns="http://www.w3.org/2000/svg"><defs><linearGradient id="sw-gradient-0" x1="0" x2="0" y1="1" y2="0"><stop stop-color="rgba(216.42, 249.45, 247.1, 1)" offset="0%"/><stop stop-color="rgba(135.032, 244.897, 229.636, 1)" offset="100%"/></linearGradient></defs><path style="transform:translate(0, 0px); opacity:1" fill="url(#sw-gradient-0)" d="M0,45L16,47.5C32,50,64,55,96,52.5C128,50,160,40,192,37.5C224,35,256,40,288,47.5C320,55,352,65,384,67.5C416,70,448,65,480,62.5C512,60,544,60,576,60C608,60,640,60,672,50C704,40,736,20,768,12.5C800,5,832,10,864,32.5C896,55,928,95,960,107.5C992,120,1024,105,1056,82.5C1088,60,1120,30,1152,20C1184,10,1216,20,1248,32.5C1280,45,1312,60,1344,57.5C1376,55,1408,35,1440,22.5C1472,10,1504,5,1536,10C1568,15,1600,30,1632,52.5C1664,75,1696,105,1728,97.5C1760,90,1792,45,1824,40C1856,35,1888,70,1920,82.5C1952,95,1984,85,2016,77.5C2048,70,2080,65,2112,60C2144,55,2176,50,2208,47.5C2240,45,2272,45,2288,45L2304,45L2304,150L2288,150C2272,150,2240,150,2208,150C2176,150,2144,150,2112,150C2080,150,2048,150,2016,150C1984,150,1952,150,1920,150C1888,150,1856,150,1824,150C1792,150,1760,150,1728,150C1696,150,1664,150,1632,150C1600,150,1568,150,1536,150C1504,150,1472,150,1440,150C1408,150,1376,150,1344,150C1312,150,1280,150,1248,150C1216,150,1184,150,1152,150C1120,150,1088,150,1056,150C1024,150,992,150,960,150C928,150,896,150,864,150C832,150,800,150,768,150C736,150,704,150,672,150C640,150,608,150,576,150C544,150,512,150,480,150C448,150,416,150,384,150C352,150,320,150,288,150C256,150,224,150,192,150C160,150,128,150,96,150C64,150,32,150,16,150L0,150Z"/></svg>